<?xml version="1.0" encoding="UTF-8"?>
<svg width="1440px" height="47px" viewBox="0 0 1440 47" version="1.1" xmlns="http://www.w3.org/2000/svg" xmlns:xlink="http://www.w3.org/1999/xlink">
    <title>Service Single Bottom Half Curve@1x</title>
    <g id="Page-1" stroke="none" stroke-width="1" fill="none" fill-rule="evenodd">
        <g id="Hero-Curves" transform="translate(-60.000000, -3178.000000)" fill="#FFFFFF">
            <path d="M1500,3180.10481 C1289.11893,3176.00888 1073.42405,3183.3592 858.618747,3193.94731 L841.204163,3194.81273 C838.302095,3194.9581 835.400217,3195.10402 832.498544,3195.25047 L815.091075,3196.13536 C809.289479,3196.43233 803.488814,3196.73127 797.689193,3197.03201 L780.293575,3197.93945 L762.904896,3198.8567 C760.007399,3199.01034 757.110219,3199.16435 754.21337,3199.3187 L736.836366,3200.24885 L710.787248,3201.65762 L693.43308,3202.60441 L676.08923,3203.55616 L641.435181,3205.47061 L533.406706,3211.47438 L510.200362,3212.75173 L496.291089,3213.50878 L482.385621,3214.25671 L468.478154,3214.9938 L454.562882,3215.71833 L445.278833,3216.19352 L431.337655,3216.89329 L422.03096,3217.35039 L412.712196,3217.79935 L403.379645,3218.23968 L394.031586,3218.67085 C392.472189,3218.74192 390.912073,3218.81259 389.351204,3218.88284 L379.976659,3219.29934 C376.848604,3219.43646 373.717249,3219.57184 370.582306,3219.7054 L361.166425,3220.10054 C268.465456,3223.93059 172.392659,3226.10078 65.5890743,3224.43023 L60.1490997,3224.34196 L60,3178 L1500,3178 L1500,3180.10481 Z" id="Service-Single-Bottom-Half-Curve"></path>
        </g>
    </g>
</svg>