<svg id="Fill_3" data-name="Fill 3" xmlns="http://www.w3.org/2000/svg" xmlns:xlink="http://www.w3.org/1999/xlink" width="56" height="56" viewBox="0 0 56 56">
  <defs>
    <radialGradient id="radial-gradient" cx="0.842" cy="0.16" r="1.013" gradientUnits="objectBoundingBox">
      <stop offset="0" stop-color="#61c096"/>
      <stop offset="1" stop-color="#00aae7"/>
    </radialGradient>
  </defs>
  <path id="Combined_Shape" data-name="Combined Shape" d="M44.614,35.4l-.379-.2c-.644-.347-1.414-.808-2.382-1.422l-.606-.387-2.8-1.824-.593-.376-.365.106a26.683,26.683,0,0,1-7.114.889,31.292,31.292,0,0,1-3.271-.166,1.352,1.352,0,1,1,.284-2.689,28.5,28.5,0,0,0,2.986.151A23.016,23.016,0,0,0,37.6,28.435l.576-.192.527.3.24.141c.341.205.775.48,1.369.865l2.7,1.754c.675.431,1.249.787,1.742,1.077l.2.116-.149-.567c-.068-.248-.144-.52-.231-.823L43.56,27.683c-.223-.77-.347-1.237-.446-1.669l-.2-.956.355-.484.18-.256a10.6,10.6,0,0,0,1.695-6.1c0-4.987-2.438-8.3-6.944-10.006a1.352,1.352,0,1,1,.959-2.528c5.528,2.093,8.69,6.39,8.69,12.534l0,.4a13.236,13.236,0,0,1-2,6.976l-.036.053.04.159c.081.314.186.693.339,1.22l.845,2.861c.282.964.472,1.652.617,2.257l.123.538c.352,1.607.362,2.284-.438,2.919a1.557,1.557,0,0,1-1,.4A4.05,4.05,0,0,1,44.614,35.4ZM.684,32.879c-.869-.7-.8-1.456-.4-3.27l.076-.338c.132-.561.3-1.208.556-2.1l.692-2.394c.351-1.215.517-1.814.633-2.291l.01-.044-.04-.065a14.092,14.092,0,0,1-2.047-7.3l0-.425A15.064,15.064,0,0,1,1.441,8.324,12.366,12.366,0,0,1,5.075,3.737C8.182,1.292,12.692,0,18.118,0a27.277,27.277,0,0,1,7.4.935A16.272,16.272,0,0,1,31.18,3.714,12.27,12.27,0,0,1,34.8,8.3a15.2,15.2,0,0,1,1.275,6.351A15.208,15.208,0,0,1,34.8,21a12.27,12.27,0,0,1-3.622,4.585,16.272,16.272,0,0,1-5.664,2.779,27.277,27.277,0,0,1-7.4.935,26.8,26.8,0,0,1-7.378-.953l-.287-.086-.588.382L6.695,30.749C5.7,31.4,4.94,31.874,4.3,32.243l-.381.214a5.1,5.1,0,0,1-2.183.851A1.621,1.621,0,0,1,.684,32.879ZM7.018,5.832A10.468,10.468,0,0,0,2.995,14.65a11.236,11.236,0,0,0,1.927,6.683l.359.5-.123.6c-.123.606-.258,1.139-.556,2.191L3.582,28.166c-.087.31-.166.593-.238.864L3.2,29.6l.551-.335c.41-.254.868-.547,1.4-.9l.28-.184L8.32,26.268c.54-.355.918-.593,1.225-.775l.561-.329.616.21a22.986,22.986,0,0,0,7.4,1.094c9.752,0,15.123-4.2,15.123-11.818S27.871,2.833,18.118,2.833C13.361,2.833,9.626,3.842,7.018,5.832Zm15.653,8.484a1.845,1.845,0,1,1,1.844,1.842A1.843,1.843,0,0,1,22.671,14.316Zm-6.456,0a1.845,1.845,0,1,1,1.844,1.842A1.843,1.843,0,0,1,16.215,14.316Zm-6.456,0A1.845,1.845,0,1,1,11.6,16.159,1.844,1.844,0,0,1,9.759,14.316Z" transform="translate(3.999 10)" fill="url(#radial-gradient)"/>
</svg>
