<svg id="global_logo_-_wordmark_black_" data-name="global / logo - wordmark (black)" xmlns="http://www.w3.org/2000/svg" xmlns:xlink="http://www.w3.org/1999/xlink" width="358" height="72" viewBox="0 0 358 72">
  <defs>
    <radialGradient id="radial-gradient" cx="0.926" cy="0.135" r="1.496" gradientUnits="objectBoundingBox">
      <stop offset="0" stop-color="#61c096"/>
      <stop offset="1" stop-color="#00aae7"/>
    </radialGradient>
    <radialGradient id="radial-gradient-2" cx="1" cy="0.5" r="1" xlink:href="#radial-gradient"/>
  </defs>
  <g id="logo">
    <path id="R_ball" data-name="R ball" d="M6.16,12.288A6.175,6.175,0,0,1,.824,9.22,6.14,6.14,0,0,1,3.076.824a6.18,6.18,0,0,1,6.168,0A6.138,6.138,0,0,1,12.32,6.152,6.03,6.03,0,0,1,11.5,9.22,6.163,6.163,0,0,1,6.16,12.288ZM6.177,1.271a4.769,4.769,0,0,0-3.47,1.423A4.68,4.68,0,0,0,1.271,6.128a4.79,4.79,0,0,0,2.436,4.189,4.937,4.937,0,0,0,4.9,0A4.766,4.766,0,0,0,10.4,8.561a4.686,4.686,0,0,0,.652-2.393A4.738,4.738,0,0,0,9.622,2.7,4.712,4.712,0,0,0,6.177,1.271ZM5.091,9.539H3.612V2.79H6.6A3.426,3.426,0,0,1,7.978,3a1.641,1.641,0,0,1,.713.66,2.1,2.1,0,0,1,.268,1.085,2.041,2.041,0,0,1-.165.88,1.894,1.894,0,0,1-.623.672,1.243,1.243,0,0,1,.507.471,2.431,2.431,0,0,1,.168.921,12.473,12.473,0,0,0,.109,1.458.744.744,0,0,0,.283.39l-1.686,0a2.293,2.293,0,0,1-.146-.459,5.074,5.074,0,0,1-.04-.635,5.051,5.051,0,0,0-.1-1.1.564.564,0,0,0-.253-.314,1.678,1.678,0,0,0-.728-.1h-1.2V9.538Zm0-5.454v1.6H6.329a1.611,1.611,0,0,0,.95-.194.762.762,0,0,0,.232-.619.727.727,0,0,0-.229-.606,1.671,1.671,0,0,0-.945-.182Z" transform="translate(345 13)" fill="#ffffff"/>
    <path id="brain" d="M78.529,44.654c-7.341,0-13.232-3.919-15.759-10.484a19.683,19.683,0,0,1,.005-14.28C65.3,13.333,71.188,9.418,78.529,9.418c6.043,0,11,2.473,13.947,6.962V9.6h3.155V44.472H92.416l.016-7a15.137,15.137,0,0,1-5.8,5.306A17.38,17.38,0,0,1,78.529,44.654Zm0-32.021c-6.033,0-10.7,3.068-12.8,8.419a17.364,17.364,0,0,0,.005,11.979c2.1,5.343,6.762,8.407,12.8,8.407s10.7-3.068,12.8-8.418a16.508,16.508,0,0,0,0-11.967C89.229,15.7,84.563,12.633,78.529,12.633ZM17.1,44.654A17.375,17.375,0,0,1,9,42.776a15.133,15.133,0,0,1-5.8-5.305l.015,7H0V0H3.219l-.05,16.4c2.918-4.5,7.866-6.98,13.932-6.98,7.418,0,13.183,3.818,15.817,10.475a20.366,20.366,0,0,1,0,14.279C30.285,40.833,24.519,44.654,17.1,44.654Zm0-32.021c-6.058,0-10.7,3.065-12.736,8.41a16.5,16.5,0,0,0,0,11.976c2.038,5.35,6.681,8.419,12.74,8.419,6.035,0,10.7-3.068,12.8-8.418a16.5,16.5,0,0,0,0-11.967C27.8,15.7,23.136,12.633,17.1,12.633Zm27.067,31.96H40.952V9.6h3.217V13.94a11.824,11.824,0,0,1,4.288-3.287,13.377,13.377,0,0,1,5.588-1.175,16.752,16.752,0,0,1,5.681,1.031l.666.236v3.441l-1.361-.526a13.813,13.813,0,0,0-4.986-.966c-5.7.056-9.763,4.175-9.876,10.017V44.592Zm77.528-.12H118.42V9.6h3.222l-.037,5.531a10.422,10.422,0,0,1,.859-1.03,13.527,13.527,0,0,1,4.929-3.382,16.6,16.6,0,0,1,6.283-1.183h.151a14.82,14.82,0,0,1,10.733,4.04c2.93,2.91,4.479,7.132,4.479,12.211v18.68h-3.215V25.79c0-4.2-1.216-7.627-3.516-9.913a11.63,11.63,0,0,0-8.534-3.123h-.129a12.076,12.076,0,0,0-8.876,3.57c-1.986,2.167-3.019,5.233-3.073,9.114V44.472Zm-13.183,0H105.3V9.478h3.215ZM106.9,5.706a2.215,2.215,0,1,1,2.215-2.215A2.218,2.218,0,0,1,106.9,5.706Z" transform="translate(192 12)" fill="url(#radial-gradient)"/>
    <path id="digital" d="M72.425,58.024A19.235,19.235,0,0,1,61.26,54.568a12.8,12.8,0,0,1-3.668-4.055,10.863,10.863,0,0,1-1.39-5.37H66.227a3.16,3.16,0,0,0,1.72,2.509,7.745,7.745,0,0,0,4.008,1.076l.165,0c2.127-.037,7.114-.863,7.473-7.716v-1.7c-1.926,2.258-4.789,3.4-8.506,3.4a18.561,18.561,0,0,1-6.938-1.233,13.478,13.478,0,0,1-4.956-3.392c-2.594-2.825-3.964-6.772-3.964-11.416a21.64,21.64,0,0,1,.991-6.651,15.823,15.823,0,0,1,2.958-5.427c2.776-3.269,6.831-5,11.727-5h.121c3.79,0,6.673,1.227,8.567,3.647V9.964h9.539V40.95a19.981,19.981,0,0,1-1.44,7.794,14.439,14.439,0,0,1-3.792,5.3A17.3,17.3,0,0,1,72.425,58.024Zm-.243-39.31a6.96,6.96,0,0,0-5.092,2.024,8.441,8.441,0,0,0-2.26,6.056c.063,4.717,3.855,6.865,7.352,6.865,3.57-.058,7.411-2.269,7.411-6.987A7.708,7.708,0,0,0,72.182,18.714Zm53.939,24.667a16.152,16.152,0,0,1-4.863-.667,8.768,8.768,0,0,1-5.934-5.8,16.827,16.827,0,0,1-.794-5.443V18.531h-4.313v-8.2h4.313V4.071l9.539-.851v7.109h6.867v8.2H124.07V31.472c0,3.33,2.779,3.828,4.436,3.828a13.511,13.511,0,0,0,2.734-.3l.3,7.9a32.957,32.957,0,0,1-5.225.486Zm24.015-.121a14.967,14.967,0,0,1-10.9-4.287,16.162,16.162,0,0,1-3.687-5.924,20.632,20.632,0,0,1-1.207-7.227,17.493,17.493,0,0,1,4.018-11.575,13.6,13.6,0,0,1,4.945-3.532,17.833,17.833,0,0,1,6.956-1.3,10.476,10.476,0,0,1,8.506,3.951v-3.4H168.3v32.87h-9.539v-3.28C156.785,42.013,153.882,43.26,150.136,43.26Zm1.155-25.033c-5,0-7.293,3.936-7.351,7.837a8.345,8.345,0,0,0,2.25,5.985,6.974,6.974,0,0,0,5.1,2.035,7.7,7.7,0,0,0,7.474-7.9A7.736,7.736,0,0,0,151.291,18.228ZM15.8,43.26a14.968,14.968,0,0,1-10.9-4.287,16.16,16.16,0,0,1-3.687-5.924A20.633,20.633,0,0,1,0,25.822,17.49,17.49,0,0,1,4.018,14.247a13.6,13.6,0,0,1,4.945-3.532,17.831,17.831,0,0,1,6.956-1.3,11.041,11.041,0,0,1,8.5,3.524V0h9.539V42.834H24.424v-3.28C22.446,42.013,19.543,43.26,15.8,43.26Zm1.154-25.033c-5,0-7.293,3.936-7.352,7.837A8.348,8.348,0,0,0,11.85,32.05a6.974,6.974,0,0,0,5.1,2.035,7.7,7.7,0,0,0,7.473-7.9A7.736,7.736,0,0,0,16.952,18.228ZM183.737,42.834h-9.723V.3h9.723Zm-78.38,0H95.636V9.964h9.721Zm-55.169,0H40.467V9.964h9.721Z" transform="translate(0 13)" fill="#ffffff"/>
    <path id="flourish" d="M61.943,0A8.27,8.27,0,0,0,56.4,2.131h0c-7.147,6.395-35.366,6.4-42.528,0h0A8.3,8.3,0,0,0,8.331,0h0a8.3,8.3,0,0,0-6,2.562h0a8.289,8.289,0,0,0,.01,11.546h0a8.281,8.281,0,0,0,11.528.43h0c7.144-6.4,35.362-6.4,42.526,0h0a8.289,8.289,0,0,0,11.538-.434h0a8.3,8.3,0,0,0-.008-11.55h0A8.294,8.294,0,0,0,61.943,0Z" transform="translate(38)" fill="url(#radial-gradient-2)"/>
  </g>
</svg>
