<svg id="global_logo_-_wordmark_all_white_" data-name="global / logo - wordmark (all white)" xmlns="http://www.w3.org/2000/svg" width="358" height="72" viewBox="0 0 358 72">
  <g id="logo">
    <path id="R_ball" data-name="R ball" d="M6.16,12.288A6.175,6.175,0,0,1,.824,9.22,6.14,6.14,0,0,1,3.076.824a6.18,6.18,0,0,1,6.168,0A6.138,6.138,0,0,1,12.32,6.152,6.03,6.03,0,0,1,11.5,9.22,6.163,6.163,0,0,1,6.16,12.288ZM6.177,1.271a4.769,4.769,0,0,0-3.47,1.423A4.68,4.68,0,0,0,1.271,6.128a4.79,4.79,0,0,0,2.436,4.189,4.937,4.937,0,0,0,4.9,0A4.766,4.766,0,0,0,10.4,8.561a4.686,4.686,0,0,0,.652-2.393A4.738,4.738,0,0,0,9.622,2.7,4.712,4.712,0,0,0,6.177,1.271ZM5.091,9.539H3.612V2.79H6.6A3.426,3.426,0,0,1,7.978,3a1.641,1.641,0,0,1,.713.66,2.1,2.1,0,0,1,.268,1.085,2.041,2.041,0,0,1-.165.88,1.894,1.894,0,0,1-.623.672,1.243,1.243,0,0,1,.507.471,2.431,2.431,0,0,1,.168.921,12.473,12.473,0,0,0,.109,1.458.744.744,0,0,0,.283.39l-1.686,0a2.293,2.293,0,0,1-.146-.459,5.074,5.074,0,0,1-.04-.635,5.051,5.051,0,0,0-.1-1.1.564.564,0,0,0-.253-.314,1.678,1.678,0,0,0-.728-.1h-1.2V9.538Zm0-5.454v1.6H6.329a1.611,1.611,0,0,0,.95-.194.762.762,0,0,0,.232-.619.727.727,0,0,0-.229-.606,1.671,1.671,0,0,0-.945-.182Z" transform="translate(345 13)" fill="#fff"/>
    <path id="Combined_Shape" data-name="Combined Shape" d="M61.259,67.568a12.815,12.815,0,0,1-3.668-4.055,10.868,10.868,0,0,1-1.39-5.37H66.227a3.162,3.162,0,0,0,1.72,2.509,7.746,7.746,0,0,0,4.009,1.076c.055,0,.11,0,.165,0,2.128-.037,7.114-.862,7.473-7.716v-1.7c-1.926,2.259-4.789,3.4-8.506,3.4a18.567,18.567,0,0,1-6.938-1.233,13.472,13.472,0,0,1-4.955-3.392c-2.594-2.824-3.965-6.772-3.965-11.416a21.662,21.662,0,0,1,.991-6.651,15.827,15.827,0,0,1,2.958-5.427c2.777-3.269,6.831-5,11.727-5h.121c3.79,0,6.673,1.228,8.567,3.647V22.964h9.539V53.95a19.977,19.977,0,0,1-1.44,7.795,14.441,14.441,0,0,1-3.793,5.3,17.3,17.3,0,0,1-11.475,3.98A19.239,19.239,0,0,1,61.259,67.568Zm5.83-33.83a8.438,8.438,0,0,0-2.26,6.055c.062,4.717,3.855,6.865,7.352,6.865,3.569-.058,7.411-2.269,7.411-6.987a7.708,7.708,0,0,0-7.411-7.959A6.958,6.958,0,0,0,67.09,33.738ZM254.769,46.17a19.686,19.686,0,0,1,.005-14.28c2.524-6.557,8.413-10.472,15.754-10.472,6.043,0,11,2.473,13.947,6.962V21.6h3.155V56.471h-3.216l.016-7a15.133,15.133,0,0,1-5.8,5.306,17.38,17.38,0,0,1-8.105,1.878C263.188,56.654,257.3,52.736,254.769,46.17Zm2.958-13.118a17.367,17.367,0,0,0,.005,11.979c2.1,5.343,6.763,8.407,12.8,8.407s10.7-3.068,12.8-8.418a16.509,16.509,0,0,0,0-11.967c-2.1-5.351-6.768-8.42-12.8-8.42S259.83,27.7,257.728,33.052ZM201,54.776a15.136,15.136,0,0,1-5.8-5.306l.015,7H192V12h3.219l-.05,16.4c2.918-4.5,7.867-6.98,13.932-6.98,7.418,0,13.183,3.819,15.818,10.475a20.362,20.362,0,0,1,0,14.279c-2.636,6.663-8.4,10.483-15.82,10.483A17.378,17.378,0,0,1,201,54.776Zm-4.632-21.733a16.506,16.506,0,0,0,0,11.976c2.038,5.35,6.682,8.419,12.74,8.419,6.035,0,10.7-3.068,12.8-8.418a16.5,16.5,0,0,0,0-11.967c-2.1-5.351-6.767-8.42-12.8-8.42C203.043,24.633,198.4,27.7,196.365,33.043Zm39.8,23.55h-3.216V21.6h3.217V25.94a11.83,11.83,0,0,1,4.288-3.287,13.382,13.382,0,0,1,5.587-1.175,16.753,16.753,0,0,1,5.681,1.031l.666.236v3.441l-1.361-.527a13.809,13.809,0,0,0-4.986-.966c-5.7.056-9.763,4.175-9.876,10.017V56.592h0Zm77.528-.121H310.42V21.6h3.222l-.037,5.531a10.62,10.62,0,0,1,.859-1.03,13.544,13.544,0,0,1,4.928-3.381,16.6,16.6,0,0,1,6.284-1.183h.15a14.821,14.821,0,0,1,10.732,4.04c2.93,2.91,4.479,7.132,4.479,12.211v18.68h-3.215V37.79c0-4.2-1.216-7.627-3.516-9.913a11.63,11.63,0,0,0-8.534-3.123h-.129a12.077,12.077,0,0,0-8.876,3.57c-1.985,2.167-3.02,5.233-3.073,9.114V56.471h0Zm-13.184,0H297.3V21.478h3.215V56.471Zm-179.253-.756a8.77,8.77,0,0,1-5.934-5.8,16.834,16.834,0,0,1-.794-5.443V31.531h-4.313v-8.2h4.313V17.07l9.539-.851v7.109h6.867v8.2H124.07V44.472c0,3.331,2.779,3.828,4.436,3.828a13.489,13.489,0,0,0,2.734-.3l.3,7.9a32.935,32.935,0,0,1-5.225.486h-.2A16.173,16.173,0,0,1,121.258,55.715Zm17.975-3.741a16.168,16.168,0,0,1-3.686-5.924,20.641,20.641,0,0,1-1.207-7.228,17.5,17.5,0,0,1,4.018-11.575,13.609,13.609,0,0,1,4.945-3.532,17.84,17.84,0,0,1,6.956-1.3,10.478,10.478,0,0,1,8.506,3.951v-3.4H168.3v32.87h-9.539v-3.28c-1.979,2.461-4.883,3.707-8.628,3.707A14.97,14.97,0,0,1,139.233,51.973Zm4.707-12.909a8.342,8.342,0,0,0,2.25,5.985,6.97,6.97,0,0,0,5.1,2.035,7.7,7.7,0,0,0,7.474-7.9,7.736,7.736,0,0,0-7.474-7.959C146.293,31.227,144,35.164,143.94,39.065ZM4.894,51.973a16.168,16.168,0,0,1-3.686-5.924A20.641,20.641,0,0,1,0,38.822,17.492,17.492,0,0,1,4.019,27.247a13.606,13.606,0,0,1,4.945-3.532,17.84,17.84,0,0,1,6.956-1.3,11.043,11.043,0,0,1,8.505,3.524V13h9.539V55.833H24.424v-3.28c-1.978,2.461-4.882,3.707-8.627,3.707A14.969,14.969,0,0,1,4.894,51.973ZM9.6,39.065A8.349,8.349,0,0,0,11.85,45.05a6.974,6.974,0,0,0,5.1,2.034,7.7,7.7,0,0,0,7.473-7.9,7.736,7.736,0,0,0-7.473-7.959C11.956,31.227,9.659,35.164,9.6,39.065ZM183.735,55.833h-9.721V13.3h9.723v42.53Zm-78.38,0H95.636V22.964h9.721v32.87Zm-55.169,0H40.467V22.964h9.721v32.87Zm246.5-40.343a2.215,2.215,0,1,1,2.216,2.215A2.218,2.218,0,0,1,296.689,15.491ZM40.346,14.113A8.319,8.319,0,0,1,51.875,2.131c7.161,6.4,35.381,6.395,42.528,0a8.321,8.321,0,0,1,11.536,11.978,8.289,8.289,0,0,1-11.538.434c-7.164-6.4-35.383-6.4-42.526,0h0a8.28,8.28,0,0,1-11.528-.43Z" transform="translate(0 0)" fill="#fff"/>
  </g>
</svg>
