<svg width="375" height="635" xmlns="http://www.w3.org/2000/svg">
 <defs>
  <radialGradient gradientUnits="objectBoundingBox" r="1.013" cy="0.16" cx="0.842" id="radial-gradient">
   <stop stop-color="#61c096" offset="0"/>
   <stop stop-color="#00aae7" offset="1"/>
  </radialGradient>
 </defs>
 <g>
  <title>background</title>
  <rect fill="none" id="canvas_background" height="637" width="377" y="-1" x="-1"/>
 </g>
 <g>
  <title>Layer 1</title>
  <path fill="url(#radial-gradient)" d="m0,0l375,0l0,635l-375,0l0,-635z" id="Path"/>
  <path fill="url(#radial-gradient)" d="m209.4,841.682a18.8,18.8 0 1 1 18.795,19.318a19.062,19.062 0 0 1 -18.795,-19.318zm-75.166,0a19.314,19.314 0 1 1 19.316,19.318a19.317,19.317 0 0 1 -19.314,-19.318l-0.002,0zm141.98,0a12.539,12.539 0 1 1 12.528,13.054a12.8,12.8 0 0 1 -12.526,-13.056l-0.002,0.002zm-198.356,0a13.05,13.05 0 1 1 13.05,13.054a13.051,13.051 0 0 1 -13.048,-13.056l-0.002,0.002zm124.233,-78.848c0,-15 11.685,-27.15 26.1,-27.15s26.1,12.155 26.1,27.15s-11.689,27.154 -26.1,27.154s-26.097,-12.16 -26.097,-27.156l-0.003,0.002zm-76.21,0a27.144,27.144 0 1 1 27.148,27.154a27.148,27.148 0 0 1 -27.146,-27.156l-0.002,0.002zm147.2,0a16.19,16.19 0 1 1 16.18,16.711a16.451,16.451 0 0 1 -16.177,-16.713l-0.003,0.002zm-202.532,0a16.7,16.7 0 1 1 16.706,16.711a16.7,16.7 0 0 1 -16.703,-16.713l-0.003,0.002zm262.039,0.522a12.006,12.006 0 1 1 12.012,12.01a12.01,12.01 0 0 1 -12.009,-12.012l-0.003,0.002zm-324.677,0a12.006,12.006 0 1 1 12.008,12.011a12.006,12.006 0 0 1 -12.005,-12.013l-0.003,0.002zm202.065,-61.6a32.736,32.736 0 0 1 -0.035,-44.9a31.472,31.472 0 0 1 44.15,-1.7a62.991,62.991 0 0 0 84.961,0a31.432,31.432 0 0 1 44.114,1.66a32.741,32.741 0 0 1 0.035,44.9a31.469,31.469 0 0 1 -44.15,1.7a62.994,62.994 0 0 0 -84.961,0a31.423,31.423 0 0 1 -44.114,-1.663l0,0.003zm-84.013,1.663a65.415,65.415 0 0 0 -86.819,0a32.653,32.653 0 0 1 -45.112,-1.7a32.233,32.233 0 0 1 0.032,-44.9a32.621,32.621 0 0 1 45.08,-1.66a65.411,65.411 0 0 0 86.819,0a32.662,32.662 0 0 1 45.115,1.7a32.226,32.226 0 0 1 -0.04,44.9a32.607,32.607 0 0 1 -45.076,1.663l0.001,-0.003zm152.923,-83.119a32.727,32.727 0 0 1 -0.039,-44.9a31.471,31.471 0 0 1 44.153,-1.7a62.986,62.986 0 0 0 84.958,0a31.437,31.437 0 0 1 44.119,1.66a32.743,32.743 0 0 1 0.031,44.9a31.473,31.473 0 0 1 -44.15,1.7a62.984,62.984 0 0 0 -84.958,0a31.418,31.418 0 0 1 -44.111,-1.668l-0.003,0.008zm-222.868,1.668a65.407,65.407 0 0 0 -86.818,0a32.656,32.656 0 0 1 -45.111,-1.7a32.16,32.16 0 0 1 -9.089,-22.268l0,-0.311a32.164,32.164 0 0 1 9.122,-22.325a32.62,32.62 0 0 1 45.078,-1.664a65.409,65.409 0 0 0 86.818,0a32.663,32.663 0 0 1 45.118,1.7a32.447,32.447 0 0 1 -45.118,46.569l0,-0.001zm143.987,-26.221c0,-12.114 9.585,-21.932 21.4,-21.932s21.4,9.818 21.4,21.932s-9.581,21.928 -21.4,21.928a21.673,21.673 0 0 1 -21.399,-21.929l-0.001,0.001zm-61.594,0a21.923,21.923 0 1 1 21.925,21.928a21.927,21.927 0 0 1 -21.925,-21.929l0,0.001zm71.568,-64.212a32.732,32.732 0 0 1 -0.035,-44.9a31.472,31.472 0 0 1 44.15,-1.7a63,63 0 0 0 84.962,0a31.423,31.423 0 0 1 44.114,1.66a32.732,32.732 0 0 1 0.031,44.9a31.465,31.465 0 0 1 -44.146,1.706a62.991,62.991 0 0 0 -84.962,0a31.428,31.428 0 0 1 -44.114,-1.668l0,0.002zm-83.262,1.665a66.016,66.016 0 0 0 -87.278,0a32.959,32.959 0 0 1 -45.356,-1.706a32.109,32.109 0 0 1 0.032,-44.9a32.917,32.917 0 0 1 45.325,-1.66a66.027,66.027 0 0 0 87.278,0a32.967,32.967 0 0 1 45.36,1.7a32.1,32.1 0 0 1 -0.04,44.9a32.917,32.917 0 0 1 -45.32,1.668l-0.001,-0.002zm74.333,-113.947c0,-15 11.686,-27.15 26.1,-27.15s26.1,12.155 26.1,27.15s-11.686,27.154 -26.1,27.154s-26.1,-12.159 -26.1,-27.154zm-74.122,0a27.143,27.143 0 1 1 27.145,27.154a27.148,27.148 0 0 1 -27.145,-27.154zm149.288,0a16.19,16.19 0 1 1 16.184,16.71a16.453,16.453 0 0 1 -16.184,-16.708l0,-0.002zm-205.664,0a16.7,16.7 0 1 1 16.706,16.709a16.706,16.706 0 0 1 -16.706,-16.707l0,-0.002zm263.083,-0.52a12.006,12.006 0 1 1 12.005,12.008a12.009,12.009 0 0 1 -12.005,-12.007l0,-0.001zm-313.194,0a12.006,12.006 0 1 1 12.008,12.008a12.012,12.012 0 0 1 -12.008,-12.007l0,-0.001zm185.829,-78.325c0,-11.824 9.346,-21.408 20.877,-21.408a21.148,21.148 0 0 1 20.882,21.408a21.148,21.148 0 0 1 -20.882,21.408c-11.531,0.001 -20.877,-9.583 -20.877,-21.408zm-73.078,0a21.4,21.4 0 1 1 21.4,21.408a21.4,21.4 0 0 1 -21.401,-21.408l0.001,0zm148.244,0a10.962,10.962 0 1 1 10.964,10.966a10.963,10.963 0 0 1 -10.964,-10.964l0,-0.002zm-200.444,0a10.962,10.962 0 1 1 10.964,10.964a10.967,10.967 0 0 1 -10.964,-10.962l0,-0.002z" id="Image"/>
 </g>
</svg>