<svg xmlns="http://www.w3.org/2000/svg" width="48" height="60" viewBox="0 0 48 60">
  <g id="Fill_3" data-name="Fill 3" transform="translate(0 12)">
    <path id="Fill_1" data-name="Fill 1" d="M35,60H3a3,3,0,0,1-3-3V3A3,3,0,0,1,3,0H35a3,3,0,0,1,3,3V57A3,3,0,0,1,35,60ZM3,3V57H35L35,3ZM19.2,54H19a4.405,4.405,0,0,1-4.4-4.4v-.2A4.4,4.4,0,0,1,19,45h.2a4.4,4.4,0,0,1,4.4,4.4v.2A4.405,4.405,0,0,1,19.2,54ZM19,48a1.4,1.4,0,0,0-1.4,1.4v.2A1.4,1.4,0,0,0,19,51h.2a1.4,1.4,0,0,0,1.4-1.4v-.2A1.4,1.4,0,0,0,19.2,48Zm11.5,3H27.9a1.5,1.5,0,1,1,0-3h2.6a1.5,1.5,0,1,1,0,3ZM10.1,51H7.5a1.5,1.5,0,0,1,0-3h2.6a1.5,1.5,0,1,1,0,3ZM27.5,41h-5a2,2,0,0,1-2-2V34a2,2,0,0,1,2-2h5a2,2,0,0,1,2,2v5A2,2,0,0,1,27.5,41Zm-4-6v3h3V35Zm-8,6h-5a2,2,0,0,1-2-2V34a2,2,0,0,1,2-2h5a2,2,0,0,1,2,2v5A2,2,0,0,1,15.5,41Zm-4-6v3h3V35Zm16-7h-5a2,2,0,0,1-2-2V21a2,2,0,0,1,2-2h5a2,2,0,0,1,2,2v5A2,2,0,0,1,27.5,28Zm-4-6v3h3V22Zm-8,6h-5a2,2,0,0,1-2-2V21a2,2,0,0,1,2-2h5a2,2,0,0,1,2,2v5A2,2,0,0,1,15.5,28Zm-4-6v3h3V22Zm16-7h-5a2,2,0,0,1-2-2V8a2,2,0,0,1,2-2h5a2,2,0,0,1,2,2v5A2,2,0,0,1,27.5,15Zm-4-6v3h3V9Zm-8,6h-5a2,2,0,0,1-2-2V8a2,2,0,0,1,2-2h5a2,2,0,0,1,2,2v5A2,2,0,0,1,15.5,15Zm-4-6v3h3V9Z" transform="translate(5 -12)" fill="#121212"/>
  </g>
</svg>
