<svg xmlns="http://www.w3.org/2000/svg" width="96" height="79" viewBox="0 0 96 79">
  <path id="Shape" d="M72.516,79h0L57.29,66.866l.522-.537c8.254-8.545,13.374-16.877,15.22-24.763h-19.1V0H96V26.85l-.005.878a72.185,72.185,0,0,1-1.431,13.783,60.62,60.62,0,0,1-3.984,12.446,70.3,70.3,0,0,1-7.226,12.328A112.252,112.252,0,0,1,72.516,79ZM18.581,79h0L3.355,66.866l.522-.537c8.254-8.545,13.374-16.877,15.22-24.763H0V0H42.064V26.85l0,.878a72.185,72.185,0,0,1-1.431,13.783,60.62,60.62,0,0,1-3.984,12.446A70.3,70.3,0,0,1,29.42,66.285,112.25,112.25,0,0,1,18.581,79Z" fill="#121212"/>
</svg>
