<svg xmlns="http://www.w3.org/2000/svg" width="96" height="79.001" viewBox="0 0 96 79.001">
  <path id="_" data-name="“" d="M96,79H53.935V52.151A72.981,72.981,0,0,1,55.29,37.886a60.707,60.707,0,0,1,4.065-12.844,70.3,70.3,0,0,1,7.226-12.328A112.253,112.253,0,0,1,77.42,0L92.645,12.134C84.084,20.87,78.787,29.382,76.9,37.435H96V79ZM42.064,79H0V52.151A72.981,72.981,0,0,1,1.355,37.886,60.707,60.707,0,0,1,5.42,25.043a70.307,70.307,0,0,1,7.225-12.328A112.224,112.224,0,0,1,23.484,0L38.71,12.134c-8.563,8.737-13.859,17.249-15.742,25.3h19.1V79Z" transform="translate(0 0)" fill="#121212"/>
</svg>
