<svg xmlns="http://www.w3.org/2000/svg" width="60" height="60" viewBox="0 0 60 60">
  <g id="Fill_3" data-name="Fill 3" transform="translate(12 12)">
    <path id="Fill_5" data-name="Fill 5" d="M30,60A30,30,0,1,1,60,30,30.034,30.034,0,0,1,30,60ZM30,3A27,27,0,1,0,57,30,27.031,27.031,0,0,0,30,3ZM25.9,42.705A1.5,1.5,0,0,1,24.5,40.69l8.193-22.414A1.507,1.507,0,0,1,34.1,17.29a1.5,1.5,0,0,1,1.408,2.016L27.313,41.72A1.5,1.5,0,0,1,25.9,42.705Zm14.193,0a1.5,1.5,0,0,1-1.059-2.561L49.232,29.949,39.038,19.85a1.5,1.5,0,1,1,2.12-2.121l10.194,10.2a2.936,2.936,0,0,1,0,4.146L41.159,42.265A1.491,1.491,0,0,1,40.1,42.7Zm-20.192,0a1.491,1.491,0,0,1-1.061-.439L8.65,32.071a2.93,2.93,0,0,1,0-4.146l10.194-10.2a1.5,1.5,0,1,1,2.12,2.121l-10.193,10.2,10.193,10.1A1.5,1.5,0,0,1,19.905,42.7Z" transform="translate(-12 -12)" fill="#121212"/>
  </g>
</svg>
