<svg xmlns="http://www.w3.org/2000/svg" width="59" height="55" viewBox="0 0 59 55">
  <g id="Fill_3" data-name="Fill 3" transform="translate(11 4.2)">
    <path id="Fill_3-2" data-name="Fill 3" d="M48.6,55c-.044,0-.088,0-.132,0a2,2,0,0,1-1.777-1.379L42.613,41.141a2,2,0,0,1,2.53-2.532l12.479,4.082a2,2,0,0,1,.241,3.709l-3.691,1.767,3.341,3.343a1.5,1.5,0,1,1-2.127,2.128l-3.3-3.3L50.4,53.858A2,2,0,0,1,48.6,55ZM46.084,42.084,48.769,50.3l1.482-3.1a.206.206,0,0,1,.014-.024.206.206,0,0,0,.014-.024,1.515,1.515,0,0,1,.3-.449l.019-.015.019-.015a.119.119,0,0,0,.012-.014l.01-.013a.227.227,0,0,1,.042-.03.264.264,0,0,0,.036-.024,1.654,1.654,0,0,1,.157-.112l.079-.062a1.255,1.255,0,0,1,.238-.163l3.1-1.485ZM37.872,52.229a1.5,1.5,0,0,1-1.063-2.568l1.966-1.969a1.5,1.5,0,0,1,2.127,0,1.51,1.51,0,0,1,0,2.129l-1.967,1.968A1.494,1.494,0,0,1,37.872,52.229Zm-10.284-3.5H3.007A3.012,3.012,0,0,1,0,45.72V3.01A3.012,3.012,0,0,1,3.007,0H49.716a3.012,3.012,0,0,1,3.007,3.01V22.571a1.5,1.5,0,1,1-3.006,0V15.046H3.007V45.72H27.588a1.5,1.5,0,0,1,0,3.01ZM3.007,3.01v9.028h46.71V3.01H3.007Zm34.28,40.556H34.505a1.5,1.5,0,0,1,0-3.008h2.782a1.5,1.5,0,1,1,0,3.008Zm-12.706-.947H8.366a2.262,2.262,0,0,1-2.258-2.26V20.316a2.262,2.262,0,0,1,2.258-2.26H42.513a1.5,1.5,0,0,1,0,3.01H9.114V39.609H24.581a1.5,1.5,0,0,1,0,3.01Zm27.69-5.1a1.505,1.505,0,0,1-1.063-2.569l1.967-1.969A1.5,1.5,0,1,1,55.3,35.113l-1.967,1.969A1.494,1.494,0,0,1,52.271,37.523ZM39.907,37.4a1.492,1.492,0,0,1-1.063-.441l-1.967-1.969A1.5,1.5,0,1,1,39,32.866l1.967,1.969A1.5,1.5,0,0,1,39.907,37.4Zm6.207-2.5h0a1.5,1.5,0,0,1-1.5-1.5V30.612a1.5,1.5,0,1,1,3.007,0V33.4a1.5,1.5,0,0,1-1.5,1.5ZM19.543,9.028a1.5,1.5,0,1,1,1.5-1.5A1.506,1.506,0,0,1,19.543,9.028Zm-6.013,0a1.5,1.5,0,1,1,1.5-1.5A1.506,1.506,0,0,1,13.531,9.028Zm-6.014,0a1.5,1.5,0,1,1,1.5-1.5A1.506,1.506,0,0,1,7.517,9.028Z" transform="translate(-11 -4.2)" fill="#121212"/>
  </g>
</svg>
